<?xml version="1.0" encoding="UTF-8" standalone="no"?>
<!-- Created with Inkscape (http://www.inkscape.org/) -->

<svg
   version="1.1"
   id="svg1"
   width="3456"
   height="1152"
   viewBox="0 0 3456 1152"
   sodipodi:docname="Tarunya Logo Board.eps"
   xmlns:inkscape="http://www.inkscape.org/namespaces/inkscape"
   xmlns:sodipodi="http://sodipodi.sourceforge.net/DTD/sodipodi-0.dtd"
   xmlns="http://www.w3.org/2000/svg"
   xmlns:svg="http://www.w3.org/2000/svg">
  <defs
     id="defs1" />
  <sodipodi:namedview
     id="namedview1"
     pagecolor="#ffffff"
     bordercolor="#000000"
     borderopacity="0.25"
     inkscape:showpageshadow="2"
     inkscape:pageopacity="0.0"
     inkscape:pagecheckerboard="0"
     inkscape:deskcolor="#d1d1d1">
    <inkscape:page
       x="0"
       y="0"
       inkscape:label="1"
       id="page1"
       width="3456"
       height="1152"
       margin="0"
       bleed="0" />
  </sodipodi:namedview>
  <g
     id="g1"
     inkscape:groupmode="layer"
     inkscape:label="1">
    <g
       id="group-R5">
      <path
         id="path2"
         d="M 25920,0 H 0 V 8640 H 25920 V 0"
         style="fill:#288e3e;fill-opacity:1;fill-rule:nonzero;stroke:none"
         transform="matrix(0.13333333,0,0,-0.13333333,0,1152)" />
      <path
         id="path3"
         d="m 3056.15,3170.74 h -1265.9 l 168.11,2926.98 h 2618.46 l 20.02,-300.84 -21.12,16.73 -48.54,-78.71 c -307.42,-499.12 -345.82,-835.07 -347.19,-849.32 -18.92,-214.46 6.04,-394.09 74.6,-537.52 -8.5,6.04 -17.01,11.79 -25.78,17.56 -19.48,12.33 -469.23,295.9 -1395.89,410.81 l -61.15,7.68 -0.28,-61.71 c -7.4,-933.51 215,-1416.45 224.6,-1436.75 19.75,-40.03 39.77,-78.43 60.06,-114.91"
         style="fill:#ffffff;fill-opacity:1;fill-rule:nonzero;stroke:none"
         transform="matrix(0.13333333,0,0,-0.13333333,0,1152)" />
      <path
         id="path4"
         d="m 1800.84,3180.74 h 1238.38 c -17.27,31.59 -34.75,65.31 -52.1,100.49 -9.58,20.26 -233.07,503.66 -225.63,1441.25 l 0.32,72.95 72.35,-9.08 c 889.06,-110.25 1335.67,-372.16 1396.99,-410.4 -58.19,139.2 -78.75,310.71 -61.12,510.51 0.33,3.48 36.42,346.78 348.64,853.69 l 54.44,88.28 12.25,-9.7 -17.9,268.99 H 1967.81 Z m 1272.32,-20 h -1293.5 l 0.61,10.58 168.65,2936.4 h 2637.26 l 22.13,-332.69 -29.98,23.75 -42.64,-69.13 c -309.81,-502.98 -345.42,-841.67 -345.74,-845.03 -18.69,-211.79 6.09,-390.89 73.66,-532.25 l 16.62,-34.78 -31.44,22.32 c -8.4,5.96 -16.8,11.65 -25.47,17.35 -47.41,30.03 -490.43,297.49 -1391.63,409.24 l -49.98,6.28 -0.22,-50.42 c -7.4,-933.1 214.2,-1412.48 223.64,-1432.43 19.88,-40.31 40.01,-78.82 59.76,-114.32 l 8.27,-14.87"
         style="fill:#ffffff;fill-opacity:1;fill-rule:nonzero;stroke:none"
         transform="matrix(0.13333333,0,0,-0.13333333,0,1152)" />
      <path
         id="path5"
         d="m 2863.64,4673.31 331.83,-367.75 276.71,-306.88 23.31,-25.78 0.27,-0.55 h 0.27 l 21.67,-24.13 18.92,-20.85 143.71,-159.33 23.03,-25.5 v -0.27 l 0.82,-0.55 v -0.27 l 22.22,-24.42 v -0.27 l 18.92,-20.84 28.52,-31.55 124.5,-138.21 23.59,-25.78 v -0.27 l 12.07,-13.17 v -0.27 l 22.21,-24.4 v -0.28 l 19.2,-21.12 214.45,-237.76 23.04,-25.51 12.89,-14.26 22.21,-24.68 19.2,-21.12 v -0.27 l 360.35,-399.3 v -0.27 l 4.12,-4.39 c 0,0 598.94,680.39 -126.97,1360.78 -50.19,29.07 -99.83,67.2 -144.8,116.28 -4.94,5.22 -9.6,10.7 -13.99,16.18 -40.59,30.72 -84.47,61.16 -131.09,91.33 0,0 -442.62,275.61 -1351.18,375.43"
         style="fill:#288e3e;fill-opacity:1;fill-rule:nonzero;stroke:none"
         transform="matrix(0.13333333,0,0,-0.13333333,0,1152)" />
      <path
         id="path6"
         d="m 4277.2,3121.11 354.2,-392.48 c 30.52,37.76 149.21,194.94 199.43,412.94 52.95,229.88 38.27,576.77 -332.15,924.45 -54.57,31.74 -103.74,71.3 -146.16,117.59 -4.31,4.55 -8.81,9.74 -13.63,15.72 -38.95,29.42 -82.52,59.75 -129.51,90.15 -4.22,2.63 -442.67,270.2 -1320.66,370.95 l 821.83,-910.94 2.81,-1.85 0.23,-1.67 67.67,-74.89 z m 354.7,-422.67 -14.35,15.68 -705.62,782.37 -20.96,22.92 -193.97,215.07 -2.82,1.87 -0.23,1.69 -202.38,224.31 h -1.77 l -2.58,4.79 -22.47,24.83 -626.15,694.15 26.13,-2.87 c 900.41,-98.93 1350.93,-374.11 1355.37,-376.88 47.94,-31.02 92.25,-61.89 131.84,-91.84 l 1.77,-1.73 c 4.78,-5.95 9.17,-11.04 13.44,-15.55 41.41,-45.19 89.34,-83.68 142.56,-114.51 l 1.82,-1.35 c 378.46,-354.73 393.03,-709.74 338.61,-945.09 -58.89,-254.66 -209.46,-427.87 -210.97,-429.6 l -7.27,-8.26"
         style="fill:#ffffff;fill-opacity:1;fill-rule:nonzero;stroke:none"
         transform="matrix(0.13333333,0,0,-0.13333333,0,1152)" />
      <path
         id="path7"
         d="m 3098.37,3290.71 c 0,0 -228.81,468.59 -234.6,1382.49 L 4631.59,2713.43 c 0,0 -909.21,-647.82 -1533.22,577.28"
         style="fill:#5ac134;fill-opacity:1;fill-rule:nonzero;stroke:none"
         transform="matrix(0.13333333,0,0,-0.13333333,0,1152)" />
      <path
         id="path8"
         d="m 3107.32,3295.17 c 205.24,-402.91 462.62,-644.78 765,-718.87 367.23,-90.02 686.14,101.34 744.11,139 L 2874,4646.93 c 9.82,-880.26 229.44,-1343.72 233.32,-1351.76 z m 964.1,-762.63 c -65.29,0 -133.7,7.14 -203.86,24.33 -308.3,75.55 -570.1,320.92 -778.1,729.3 l -0.08,0.16 c -2.3,4.71 -229.87,481.1 -235.61,1386.81 l -0.17,26.26 1792.93,-1987.6 -9.14,-6.52 c -2.92,-2.08 -246.88,-172.74 -565.97,-172.74"
         style="fill:#ffffff;fill-opacity:1;fill-rule:nonzero;stroke:none"
         transform="matrix(0.13333333,0,0,-0.13333333,0,1152)" />
      <path
         id="path9"
         d="m 4620.15,2711.18 -1432.12,1587.62 14.85,13.4 1432.12,-1587.62 -14.85,-13.4"
         style="fill:#ffffff;fill-opacity:1;fill-rule:nonzero;stroke:none"
         transform="matrix(0.13333333,0,0,-0.13333333,0,1152)" />
      <path
         id="path10"
         d="m 3193.13,4303.4 348.72,-405.29 351.06,-403.21 c 116.83,-134.57 230.99,-271.55 353.37,-401.1 61.35,-64.64 122.7,-129.27 186.06,-192.09 l 95.11,-94.18 c 32.63,-30.56 64.39,-61.9 97.8,-91.75 l 4.65,4.2 c -26.27,36.29 -54.18,71.1 -81.22,106.7 l -83.91,104.28 c -55.98,69.48 -113.97,137.15 -171.97,204.8 -116.29,135.06 -240.82,262.68 -362.67,392.72 l -365.01,390.6 -367.34,388.52 -4.65,-4.2"
         style="fill:#ffffff;fill-opacity:1;fill-rule:nonzero;stroke:none"
         transform="matrix(0.13333333,0,0,-0.13333333,0,1152)" />
      <path
         id="path11"
         d="m 3391.76,4087.88 157.67,-183.25 351.02,-403.17 c 28.66,-33 57.14,-66.15 85.63,-99.29 86.16,-100.24 175.24,-203.88 267.47,-301.51 60.14,-63.36 122.34,-128.89 185.83,-191.85 l 95.11,-94.17 c 11.1,-10.4 22.31,-21.09 33.51,-31.77 2.23,-2.12 4.46,-4.26 6.71,-6.4 -1.89,2.45 -3.77,4.88 -5.64,7.3 -9.49,12.26 -18.97,24.51 -28.36,36.86 l -83.73,104.06 c -56.17,69.7 -114.94,138.27 -171.77,204.57 -87.59,101.72 -181.51,200.95 -272.34,296.92 -30.07,31.77 -60.14,63.54 -90.04,95.46 l -365.02,390.62 z m 1233.52,-1385.54 -6.7,5.98 c -21.97,19.64 -43.53,40.2 -64.38,60.08 -11.16,10.64 -22.32,21.28 -33.59,31.83 l -95.3,94.37 c -63.71,63.17 -126.02,128.83 -186.28,192.31 -92.57,97.98 -181.81,201.81 -268.12,302.22 -28.46,33.13 -56.93,66.24 -85.55,99.22 l -351.05,403.19 -355.13,412.74 19.15,17.29 374.05,-395.61 365.05,-390.66 c 29.87,-31.88 59.92,-63.63 89.97,-95.38 90.98,-96.13 185.06,-195.54 272.98,-297.63 56.95,-66.43 115.82,-135.1 172.18,-205.06 l 83.91,-104.28 c 9.52,-12.52 18.96,-24.73 28.41,-36.93 17.63,-22.78 35.85,-46.32 53.12,-70.18 l 5.26,-7.27 -17.98,-16.23"
         style="fill:#ffffff;fill-opacity:1;fill-rule:nonzero;stroke:none"
         transform="matrix(0.13333333,0,0,-0.13333333,0,1152)" />
      <path
         id="path12"
         d="m 3261.07,3929.86 -2.79,19.81 235.78,33.16 2.78,-19.8 -235.77,-33.17"
         style="fill:#ffffff;fill-opacity:1;fill-rule:nonzero;stroke:none"
         transform="matrix(0.13333333,0,0,-0.13333333,0,1152)" />
      <path
         id="path13"
         d="m 3491.09,4003.95 -231.41,-64.18 240.13,2.14 z"
         style="fill:#ffffff;fill-opacity:1;fill-rule:nonzero;stroke:none"
         transform="matrix(0.13333333,0,0,-0.13333333,0,1152)" />
      <path
         id="path14"
         d="m 3482.77,3991.26 -147.17,-40.81 152.72,1.37 z m -299.02,-62.18 315.65,87.55 11.9,-84.62 -327.55,-2.93"
         style="fill:#ffffff;fill-opacity:1;fill-rule:nonzero;stroke:none"
         transform="matrix(0.13333333,0,0,-0.13333333,0,1152)" />
      <path
         id="path15"
         d="m 3331.09,3678.88 -2.78,19.8 374.55,52.68 2.78,-19.81 -374.55,-52.67"
         style="fill:#ffffff;fill-opacity:1;fill-rule:nonzero;stroke:none"
         transform="matrix(0.13333333,0,0,-0.13333333,0,1152)" />
      <path
         id="path16"
         d="m 3699.89,3772.47 -370.19,-83.69 378.92,21.66 z"
         style="fill:#ffffff;fill-opacity:1;fill-rule:nonzero;stroke:none"
         transform="matrix(0.13333333,0,0,-0.13333333,0,1152)" />
      <path
         id="path17"
         d="m 3691.5,3760.32 -241.8,-54.67 247.5,14.15 z m -361.23,-81.52 -2.78,19.74 380.79,86.08 11.75,-83.55 -389.76,-22.27"
         style="fill:#ffffff;fill-opacity:1;fill-rule:nonzero;stroke:none"
         transform="matrix(0.13333333,0,0,-0.13333333,0,1152)" />
      <path
         id="path18"
         d="m 3460.69,3410.05 -2.78,19.8 474.73,66.78 2.78,-19.8 -474.73,-66.78"
         style="fill:#ffffff;fill-opacity:1;fill-rule:nonzero;stroke:none"
         transform="matrix(0.13333333,0,0,-0.13333333,0,1152)" />
      <path
         id="path19"
         d="m 3927.49,3533.25 -468.18,-113.3 481.27,20.25 z"
         style="fill:#ffffff;fill-opacity:1;fill-rule:nonzero;stroke:none"
         transform="matrix(0.13333333,0,0,-0.13333333,0,1152)" />
      <path
         id="path20"
         d="m 3919.12,3520.94 -358.3,-86.71 368.31,15.5 z m -459.4,-110.98 -2.77,19.71 478.9,115.9 16.17,-114.91 -492.3,-20.7"
         style="fill:#ffffff;fill-opacity:1;fill-rule:nonzero;stroke:none"
         transform="matrix(0.13333333,0,0,-0.13333333,0,1152)" />
      <path
         id="path21"
         d="m 3621.21,3068.1 -2.78,19.8 606.01,85.24 2.79,-19.8 -606.02,-85.24"
         style="fill:#ffffff;fill-opacity:1;fill-rule:nonzero;stroke:none"
         transform="matrix(0.13333333,0,0,-0.13333333,0,1152)" />
      <path
         id="path22"
         d="M 4219.29,3209.77 3619.82,3078 l 612.56,38.71 z"
         style="fill:#ffffff;fill-opacity:1;fill-rule:nonzero;stroke:none"
         transform="matrix(0.13333333,0,0,-0.13333333,0,1152)" />
      <path
         id="path23"
         d="m 4210.89,3197.69 -461.71,-101.5 471.79,29.82 z m -590.44,-129.67 -2.78,19.74 610.01,134.09 16.1,-114.44 -623.33,-39.39"
         style="fill:#ffffff;fill-opacity:1;fill-rule:nonzero;stroke:none"
         transform="matrix(0.13333333,0,0,-0.13333333,0,1152)" />
      <path
         id="path24"
         d="m 3523.5,3930.48 -19.41,4.8 57.2,231.13 19.41,-4.81 -57.2,-231.12"
         style="fill:#ffffff;fill-opacity:1;fill-rule:nonzero;stroke:none"
         transform="matrix(0.13333333,0,0,-0.13333333,0,1152)" />
      <path
         id="path25"
         d="m 3544.2,3925.35 26.79,238.65 -87.6,-223.59 z"
         style="fill:#ffffff;fill-opacity:1;fill-rule:nonzero;stroke:none"
         transform="matrix(0.13333333,0,0,-0.13333333,0,1152)" />
      <path
         id="path26"
         d="m 3496.85,3947.37 38.68,-9.57 17.05,151.79 z m 56.01,-34.47 -82.95,20.55 119.5,304.97 -36.55,-325.52"
         style="fill:#ffffff;fill-opacity:1;fill-rule:nonzero;stroke:none"
         transform="matrix(0.13333333,0,0,-0.13333333,0,1152)" />
      <path
         id="path27"
         d="m 3732.3,3699 -19.42,4.81 90.88,367.16 19.41,-4.81 L 3732.3,3699"
         style="fill:#ffffff;fill-opacity:1;fill-rule:nonzero;stroke:none"
         transform="matrix(0.13333333,0,0,-0.13333333,0,1152)" />
      <path
         id="path28"
         d="m 3753,3693.89 60.47,374.67 -121.28,-359.62 z"
         style="fill:#ffffff;fill-opacity:1;fill-rule:nonzero;stroke:none"
         transform="matrix(0.13333333,0,0,-0.13333333,0,1152)" />
      <path
         id="path29"
         d="m 3705.13,3716.04 39.73,-9.84 39.49,244.76 z m 56.01,-34.47 -81.91,20.27 124.76,369.92 19.35,-4.79 -62.2,-385.4"
         style="fill:#ffffff;fill-opacity:1;fill-rule:nonzero;stroke:none"
         transform="matrix(0.13333333,0,0,-0.13333333,0,1152)" />
      <path
         id="path30"
         d="m 3962.08,3444.28 -19.42,4.8 115.19,465.36 19.41,-4.8 -115.18,-465.36"
         style="fill:#ffffff;fill-opacity:1;fill-rule:nonzero;stroke:none"
         transform="matrix(0.13333333,0,0,-0.13333333,0,1152)" />
      <path
         id="path31"
         d="m 3997.98,3435.39 69.58,476.65 -160.8,-454.07 z"
         style="fill:#ffffff;fill-opacity:1;fill-rule:nonzero;stroke:none"
         transform="matrix(0.13333333,0,0,-0.13333333,0,1152)" />
      <path
         id="path32"
         d="m 3919.87,3465.03 69.81,-17.29 53.24,364.79 z m 86.41,-41.99 -112.62,27.87 164.46,464.47 19.33,-4.78 -71.17,-487.56"
         style="fill:#ffffff;fill-opacity:1;fill-rule:nonzero;stroke:none"
         transform="matrix(0.13333333,0,0,-0.13333333,0,1152)" />
      <path
         id="path33"
         d="m 4253.88,3120.79 -19.41,4.81 147.03,594.05 19.42,-4.81 -147.04,-594.05"
         style="fill:#ffffff;fill-opacity:1;fill-rule:nonzero;stroke:none"
         transform="matrix(0.13333333,0,0,-0.13333333,0,1152)" />
      <path
         id="path34"
         d="m 4289.78,3111.9 101.43,605.35 -192.65,-582.77 z"
         style="fill:#ffffff;fill-opacity:1;fill-rule:nonzero;stroke:none"
         transform="matrix(0.13333333,0,0,-0.13333333,0,1152)" />
      <path
         id="path35"
         d="m 4211.45,3141.59 70.26,-17.38 78.11,466.23 z m 86.41,-41.99 -112.18,27.77 196.03,593.01 19.36,-4.78 -103.21,-616"
         style="fill:#ffffff;fill-opacity:1;fill-rule:nonzero;stroke:none"
         transform="matrix(0.13333333,0,0,-0.13333333,0,1152)" />
      <path
         id="path36"
         d="m 5191.96,5041.56 c 366.31,-782.25 -305.79,-982.79 -305.79,-982.79 l -288.86,1632.8 c 450.74,-355.7 594.65,-650.01 594.65,-650.01"
         style="fill:#288e3e;fill-opacity:1;fill-rule:nonzero;stroke:none"
         transform="matrix(0.13333333,0,0,-0.13333333,0,1152)" />
      <path
         id="path37"
         d="m 4611.76,5667.3 282.22,-1595.32 c 49.34,17.73 256.4,102.93 349.97,311.9 79.44,177.39 58.91,397.22 -61.01,653.35 -2.79,5.64 -145.98,289.15 -571.18,630.07 z m 266.51,-1621.32 -295.38,1669.71 20.62,-16.27 c 447.34,-353.02 595.98,-650.5 597.43,-653.46 l 0.07,-0.15 c 122.59,-261.79 143.14,-487.32 61.1,-670.33 -109.98,-245.33 -370.47,-325.51 -373.09,-326.29 l -10.75,-3.21"
         style="fill:#ffffff;fill-opacity:1;fill-rule:nonzero;stroke:none"
         transform="matrix(0.13333333,0,0,-0.13333333,0,1152)" />
      <path
         id="path38"
         d="m 4261.76,4877.01 c 0,0 34.21,325.82 335.55,814.56 l 288.86,-1632.8 c 0,0 -700.12,-42.22 -624.41,818.24"
         style="fill:#5ac134;fill-opacity:1;fill-rule:nonzero;stroke:none"
         transform="matrix(0.13333333,0,0,-0.13333333,0,1152)" />
      <path
         id="path39"
         d="m 4271.7,4876.03 c -24.77,-281.85 31.41,-495.42 167,-634.8 159.76,-164.21 383.11,-173.29 435.59,-172.74 L 4592.07,5663.82 C 4309.66,5197.75 4272.41,4882.33 4271.7,4876.03 Z m 600.8,-827.52 c -58.6,0 -285.31,11.41 -448.13,178.78 -139.85,143.75 -197.92,362.64 -172.58,650.59 l 0.02,0.17 c 0.34,3.28 37.91,333.7 336.99,818.77 l 13.79,22.35 295.37,-1669.71 -11.2,-0.67 c -0.35,-0.02 -5.38,-0.28 -14.26,-0.28"
         style="fill:#ffffff;fill-opacity:1;fill-rule:nonzero;stroke:none"
         transform="matrix(0.13333333,0,0,-0.13333333,0,1152)" />
      <path
         id="path40"
         d="m 4875.66,4060.74 -234,1322.73 19.7,3.49 234,-1322.74 -19.7,-3.48"
         style="fill:#ffffff;fill-opacity:1;fill-rule:nonzero;stroke:none"
         transform="matrix(0.13333333,0,0,-0.13333333,0,1152)" />
      <path
         id="path41"
         d="m 4649.57,5384.87 50.75,-332.05 52.69,-331.72 c 17.4,-110.6 32.58,-221.59 54.62,-331.37 11.14,-54.86 22.3,-109.73 35.12,-164.3 l 19.29,-81.85 c 7.2,-27.14 13.68,-54.41 21.53,-81.45 l 3.88,0.69 c -1.9,28.08 -5.18,55.92 -7.72,83.89 l -9.97,83.5 c -6.67,55.66 -15.02,111.02 -23.37,166.38 -16.96,110.68 -40.79,220.14 -62.38,330 l -64.31,329.66 -66.25,329.31 -3.88,-0.69"
         style="fill:#ffffff;fill-opacity:1;fill-rule:nonzero;stroke:none"
         transform="matrix(0.13333333,0,0,-0.13333333,0,1152)" />
      <path
         id="path42"
         d="m 4711.6,5045.51 51.28,-322.84 c 4.27,-27.15 8.41,-54.32 12.55,-81.49 12.49,-82.03 25.41,-166.85 42,-249.48 10.95,-53.92 22.27,-109.59 35.05,-163.99 l 15.21,-64.55 -7.86,65.86 c -6.66,55.62 -15.14,111.77 -23.33,166.08 -12.78,83.34 -29.76,167.52 -46.18,248.92 -5.42,26.87 -10.84,53.74 -16.13,80.64 z m 164.87,-994.81 -2.51,8.64 c -5.17,17.81 -9.8,35.94 -14.29,53.47 -2.4,9.41 -4.81,18.81 -7.3,28.21 l -19.35,82.11 c -12.86,54.7 -24.2,110.53 -35.17,164.52 -16.71,83.2 -29.67,168.26 -42.19,250.52 -4.14,27.13 -8.27,54.27 -12.54,81.38 l -52.68,331.7 -52.23,341.77 23.11,4.08 68.18,-338.88 64.32,-329.72 c 5.28,-26.84 10.7,-53.69 16.11,-80.53 16.47,-81.63 33.49,-166.04 46.34,-249.86 8.22,-54.48 16.72,-110.79 23.42,-166.71 l 9.97,-83.51 c 0.91,-9.96 1.87,-19.63 2.84,-29.31 1.81,-17.98 3.67,-36.6 4.92,-55.08 l 0.61,-8.94 -21.56,-3.86"
         style="fill:#ffffff;fill-opacity:1;fill-rule:nonzero;stroke:none"
         transform="matrix(0.13333333,0,0,-0.13333333,0,1152)" />
      <path
         id="path43"
         d="m 4696.46,5099 -136.64,60.87 8.13,18.27 136.64,-60.87 -8.13,-18.27"
         style="fill:#ffffff;fill-opacity:1;fill-rule:nonzero;stroke:none"
         transform="matrix(0.13333333,0,0,-0.13333333,0,1152)" />
      <path
         id="path44"
         d="m 4708.53,5126.11 -144.64,42.9 128.63,-78.85 z"
         style="fill:#ffffff;fill-opacity:1;fill-rule:nonzero;stroke:none"
         transform="matrix(0.13333333,0,0,-0.13333333,0,1152)" />
      <path
         id="path45"
         d="m 4633.91,5137.81 54.11,-33.17 6.74,15.13 z m 63.1,-62.14 -203.15,124.54 228.45,-67.76 -25.3,-56.78"
         style="fill:#ffffff;fill-opacity:1;fill-rule:nonzero;stroke:none"
         transform="matrix(0.13333333,0,0,-0.13333333,0,1152)" />
      <path
         id="path46"
         d="m 4730.57,4906.14 -217.06,96.71 8.13,18.27 217.07,-96.71 -8.14,-18.27"
         style="fill:#ffffff;fill-opacity:1;fill-rule:nonzero;stroke:none"
         transform="matrix(0.13333333,0,0,-0.13333333,0,1152)" />
      <path
         id="path47"
         d="m 4742.65,4933.26 -225.07,78.73 209.05,-114.69 z"
         style="fill:#ffffff;fill-opacity:1;fill-rule:nonzero;stroke:none"
         transform="matrix(0.13333333,0,0,-0.13333333,0,1152)" />
      <path
         id="path48"
         d="m 4628.25,4962.68 93.67,-51.39 7.18,16.11 z m 103.09,-79.36 -218.57,119.9 8.11,18.21 235.32,-82.32 -24.86,-55.79"
         style="fill:#ffffff;fill-opacity:1;fill-rule:nonzero;stroke:none"
         transform="matrix(0.13333333,0,0,-0.13333333,0,1152)" />
      <path
         id="path49"
         d="m 4768.12,4693.91 -275.12,122.57 8.13,18.28 275.12,-122.58 -8.13,-18.27"
         style="fill:#ffffff;fill-opacity:1;fill-rule:nonzero;stroke:none"
         transform="matrix(0.13333333,0,0,-0.13333333,0,1152)" />
      <path
         id="path50"
         d="m 4784.2,4730.01 -287.13,95.61 263.1,-149.54 z"
         style="fill:#ffffff;fill-opacity:1;fill-rule:nonzero;stroke:none"
         transform="matrix(0.13333333,0,0,-0.13333333,0,1152)" />
      <path
         id="path51"
         d="m 4590.71,4783.9 164.82,-93.67 15.04,33.78 z m 174.11,-121.96 -272.7,154.98 8.1,18.19 297.6,-99.09 -33,-74.08"
         style="fill:#ffffff;fill-opacity:1;fill-rule:nonzero;stroke:none"
         transform="matrix(0.13333333,0,0,-0.13333333,0,1152)" />
      <path
         id="path52"
         d="m 4815.79,4424.39 -351.19,156.47 8.13,18.28 351.2,-156.47 -8.14,-18.28"
         style="fill:#ffffff;fill-opacity:1;fill-rule:nonzero;stroke:none"
         transform="matrix(0.13333333,0,0,-0.13333333,0,1152)" />
      <path
         id="path53"
         d="M 4831.88,4460.5 4468.67,4590 4807.85,4406.57 Z"
         style="fill:#ffffff;fill-opacity:1;fill-rule:nonzero;stroke:none"
         transform="matrix(0.13333333,0,0,-0.13333333,0,1152)" />
      <path
         id="path54"
         d="m 4587.98,4536.84 215.13,-116.34 15.24,34.21 z m 224.61,-144.2 -348.68,188.57 8.12,18.21 373.38,-133.13 -32.82,-73.65"
         style="fill:#ffffff;fill-opacity:1;fill-rule:nonzero;stroke:none"
         transform="matrix(0.13333333,0,0,-0.13333333,0,1152)" />
      <path
         id="path55"
         d="m 4703.91,5073.51 -13.92,14.37 107.46,104.05 13.92,-14.37 -107.46,-104.05"
         style="fill:#ffffff;fill-opacity:1;fill-rule:nonzero;stroke:none"
         transform="matrix(0.13333333,0,0,-0.13333333,0,1152)" />
      <path
         id="path56"
         d="m 4710.65,5066.55 93.77,118.2 -121.15,-89.92 z"
         style="fill:#ffffff;fill-opacity:1;fill-rule:nonzero;stroke:none"
         transform="matrix(0.13333333,0,0,-0.13333333,0,1152)" />
      <path
         id="path57"
         d="m 4698.38,5093.59 11.52,-11.89 39.44,49.72 z m 13.01,-42.18 -43.24,44.65 191.34,142.02 -148.1,-186.67"
         style="fill:#ffffff;fill-opacity:1;fill-rule:nonzero;stroke:none"
         transform="matrix(0.13333333,0,0,-0.13333333,0,1152)" />
      <path
         id="path58"
         d="m 4738.03,4880.65 -13.92,14.37 170.71,165.31 13.92,-14.37 -170.71,-165.31"
         style="fill:#ffffff;fill-opacity:1;fill-rule:nonzero;stroke:none"
         transform="matrix(0.13333333,0,0,-0.13333333,0,1152)" />
      <path
         id="path59"
         d="m 4744.76,4873.7 157.03,179.44 -184.41,-151.16 z"
         style="fill:#ffffff;fill-opacity:1;fill-rule:nonzero;stroke:none"
         transform="matrix(0.13333333,0,0,-0.13333333,0,1152)" />
      <path
         id="path60"
         d="m 4732.12,4901.13 12.27,-12.67 70.35,80.4 z m 13.01,-42.19 -42.49,43.89 192.8,158.05 13.87,-14.32 -164.18,-187.62"
         style="fill:#ffffff;fill-opacity:1;fill-rule:nonzero;stroke:none"
         transform="matrix(0.13333333,0,0,-0.13333333,0,1152)" />
      <path
         id="path61"
         d="m 4775.57,4668.42 -13.91,14.37 216.37,209.51 13.92,-14.36 -216.38,-209.52"
         style="fill:#ffffff;fill-opacity:1;fill-rule:nonzero;stroke:none"
         transform="matrix(0.13333333,0,0,-0.13333333,0,1152)" />
      <path
         id="path62"
         d="m 4789.15,4654.4 195.84,230.72 -236.91,-188.3 z"
         style="fill:#ffffff;fill-opacity:1;fill-rule:nonzero;stroke:none"
         transform="matrix(0.13333333,0,0,-0.13333333,0,1152)" />
      <path
         id="path63"
         d="m 4762.93,4695.85 25.73,-26.57 122.68,144.53 z m 26.71,-56.33 -56.41,58.26 245.54,195.17 13.84,-14.3 -202.97,-239.13"
         style="fill:#ffffff;fill-opacity:1;fill-rule:nonzero;stroke:none"
         transform="matrix(0.13333333,0,0,-0.13333333,0,1152)" />
      <path
         id="path64"
         d="m 4823.25,4398.91 -13.92,14.37 276.21,267.45 13.92,-14.36 -276.21,-267.46"
         style="fill:#ffffff;fill-opacity:1;fill-rule:nonzero;stroke:none"
         transform="matrix(0.13333333,0,0,-0.13333333,0,1152)" />
      <path
         id="path65"
         d="M 4836.83,4384.88 5092.5,4673.55 4795.76,4427.3 Z"
         style="fill:#ffffff;fill-opacity:1;fill-rule:nonzero;stroke:none"
         transform="matrix(0.13333333,0,0,-0.13333333,0,1152)" />
      <path
         id="path66"
         d="m 4810.45,4426.5 26.05,-26.91 162.16,183.09 z m 26.71,-56.33 -56.09,57.93 305.04,253.15 13.87,-14.33 -262.82,-296.75"
         style="fill:#ffffff;fill-opacity:1;fill-rule:nonzero;stroke:none"
         transform="matrix(0.13333333,0,0,-0.13333333,0,1152)" />
      <path
         id="path67"
         d="m 17970.4,5827.56 c -53.7,-176.43 -117.3,-384.71 -169.7,-554.98 192.9,55.77 383.8,64.28 581.4,1.83 323.1,-102.07 410.6,-447.36 302.3,-681.53 -33.3,-72.07 -83.9,-134.09 -204.7,-112.67 13.4,8.22 32.2,13.19 39.4,25.15 126.5,209.17 104,424.08 -110.2,560.9 -197.4,126.14 -452.7,7.32 -480.8,-226.55 -25.4,-211.52 83.4,-411.26 280.5,-514.95 158,-83.1 428.6,-46 570.1,66.47 168.1,133.57 193.5,452.77 119.2,650.85 -132.7,354.35 -349.9,643.69 -748.1,738.11 -52.7,12.49 -105,27.53 -179.4,47.37"
         style="fill:#ffffff;fill-opacity:1;fill-rule:nonzero;stroke:none"
         transform="matrix(0.13333333,0,0,-0.13333333,0,1152)" />
      <path
         id="path68"
         d="m 17319.9,4336.86 -305.1,115.51 311.6,505.95 z m 621.3,1486.95 -713.3,7.68 -764.3,-921.17 34.6,-1124 1433,-538.87 10,2576.36"
         style="fill:#ffffff;fill-opacity:1;fill-rule:nonzero;stroke:none"
         transform="matrix(0.13333333,0,0,-0.13333333,0,1152)" />
      <path
         id="path69"
         d="m 19571.8,3104.37 -535.6,304.23 25.5,2411.61 538.7,-5.8 -28.6,-2710.04"
         style="fill:#ffffff;fill-opacity:1;fill-rule:nonzero;stroke:none"
         transform="matrix(0.13333333,0,0,-0.13333333,0,1152)" />
      <path
         id="path70"
         d="m 16359.3,5884.9 -25.3,-2396.36 -3.2,-301.25 c -7.1,1.56 -15.4,3.28 -24.8,5.22 -35.4,7.64 -87,18.47 -151.7,31.47 l -359.6,208.15 2.5,233.7 10.6,1002.66 12.5,1189.92 0.4,32.25 538.6,-5.76"
         style="fill:#ffffff;fill-opacity:1;fill-rule:nonzero;stroke:none"
         transform="matrix(0.13333333,0,0,-0.13333333,0,1152)" />
      <path
         id="path71"
         d="m 15859.9,5855.6 3740.5,22.43 v -75.09 l -3759.9,-24.23 19.4,76.89"
         style="fill:#ffffff;fill-opacity:1;fill-rule:nonzero;stroke:none"
         transform="matrix(0.13333333,0,0,-0.13333333,0,1152)" />
      <path
         id="path72"
         d="m 21568.5,5852.51 2567.2,22.44 v -75.1 l -2580.5,-24.23 13.3,76.89"
         style="fill:#ffffff;fill-opacity:1;fill-rule:nonzero;stroke:none"
         transform="matrix(0.13333333,0,0,-0.13333333,0,1152)" />
      <path
         id="path73"
         d="m 20607.3,4758.61 c 31.2,385.98 193.2,670.91 493.2,935.25 50.1,44.23 95.7,75.77 158.9,101.75 -1.7,1.33 5.1,4.93 15.7,9.53 52.4,22.78 107.8,36.18 164.1,41.27 75.9,6.86 165.5,15.7 221.3,17.51 v -601.94 c -25.4,12.04 -64,27.74 -82.8,28.38 -201.6,6.83 -387.7,-36.19 -560.8,-159.36 -267.5,-190.45 -260,-554.93 -102.7,-755.46 48.4,-61.73 109.9,-108.73 214.1,-54.05 -14.2,4.37 -32.5,4.06 -42.1,13.82 -167.4,170.86 -201.2,388.81 -41.2,583.19 147.5,179.19 409.1,133.17 493.5,-89.38 76.3,-201.28 27.9,-428.31 -124.9,-585.31 -122.5,-125.81 -377.5,-164.56 -534.2,-93.16 -186.3,84.81 -289.6,392.19 -272.1,607.96"
         style="fill:#ffffff;fill-opacity:1;fill-rule:nonzero;stroke:none"
         transform="matrix(0.13333333,0,0,-0.13333333,0,1152)" />
      <path
         id="path74"
         d="m 20638.6,4486.65 c -43.6,-144.58 -125.9,-277.32 -238.5,-328.58 -156.8,-71.44 -411.8,-32.65 -534.2,93.16 -152.8,156.97 -201.3,384.05 -125,585.27 84.5,222.56 346.1,268.6 493.5,89.43 160,-194.44 126.2,-412.33 -41.2,-583.24 -9.6,-9.74 -27.8,-9.43 -42.1,-13.79 104.2,-54.68 165.8,-7.71 214.2,54.06 157.2,200.52 164.7,565.01 -102.8,755.48 -173.1,123.16 -359.1,166.16 -560.8,159.3 h -0.5 c -9.7,-0.46 -19.2,0.86 -28,3.67 v 548.1 c 17.6,10.6 38,15.89 59.6,14.03 35.8,-3.12 73.3,-6.63 107.9,-9.75 56.2,-5.06 111.4,-18.54 163.8,-41.28 10.5,-4.6 17.3,-8.18 15.6,-9.51 63.2,-25.93 108.7,-57.49 158.9,-101.73 243.5,-214.62 396.1,-442.79 461.6,-727.67 15.2,-65.98 25.7,-135 31.6,-207.6 6.9,-85.3 -5,-184.86 -33.6,-279.35"
         style="fill:#ffffff;fill-opacity:1;fill-rule:nonzero;stroke:none"
         transform="matrix(0.13333333,0,0,-0.13333333,0,1152)" />
      <path
         id="path75"
         d="m 24135.7,5855.46 v -5.22 l -28.6,-2707.89 -596.7,305.22 23.8,2260.58 v 0.08 l 1.5,139.45 0.2,14.18 599.8,-6.4"
         style="fill:#ffffff;fill-opacity:1;fill-rule:nonzero;stroke:none"
         transform="matrix(0.13333333,0,0,-0.13333333,0,1152)" />
      <path
         id="path76"
         d="m 22255,5853.4 -0.1,-5.22 -28.6,-2707.89 -596.7,305.22 23.9,2260.58 v 0.08 l 1.5,139.45 0.1,14.17 599.9,-6.39"
         style="fill:#ffffff;fill-opacity:1;fill-rule:nonzero;stroke:none"
         transform="matrix(0.13333333,0,0,-0.13333333,0,1152)" />
      <path
         id="path77"
         d="m 15389.6,4994.11 c -164.6,293.14 -437.6,209.47 -444,207.53 277.5,392.38 814,186.64 814,186.64 z m 430.7,801.98 c -183.2,109.92 -410.6,182.21 -671.2,133.6 0,0 -580.3,-66.76 -846.3,-644.55 -15,-32.41 -28.9,-66.52 -41.7,-102.36 l 41.7,-59.51 365.2,-519.29 c 0,0 370,560.26 406.9,93.41 0,0 55.6,-130.41 -92.4,-261.36 l 248.5,-376.41 47.1,-71.12 37.4,-56.63 28.8,39.49 35.2,48.76 428.3,586.05 22.6,30.92 0.1,0.08 v 0.08 l 11.5,1101.19 67.3,-0.7 c -28.4,20.26 -58,39.89 -89,58.35 z m 13.2,-2010.76 v -358.65 c 174.9,-32.87 311.8,-62.87 381.7,-78.53 14.6,-3.11 26.5,-5.84 34.9,-7.79 l 13.3,7.79 2.7,1.49 v 286.2 l -432.6,149.49"
         style="fill:#ffffff;fill-opacity:1;fill-rule:nonzero;stroke:none"
         transform="matrix(0.13333333,0,0,-0.13333333,0,1152)" />
      <path
         id="path78"
         d="m 16334,3488.54 -3.2,-301.25 c -7.1,1.56 -15.4,3.28 -24.8,5.22 -35.4,7.64 -87,18.47 -151.7,31.47 -69.2,13.79 -153.3,30.07 -248.1,47.06 -5.7,1 -11.5,2.02 -17.3,3.03 -10.8,1.95 -22,3.9 -33.3,6 -447,79.46 -1097.7,173.09 -1552.8,144.59 v 519.98 c 391.7,-0.78 858.4,-61.47 1378.6,-240.4 l 115.8,-38.41 36.3,-12.07 22.1,-7.32 37.3,-12.31 13.3,-4.44 359.9,-118.72 67.9,-22.43"
         style="fill:#ffffff;fill-opacity:1;fill-rule:nonzero;stroke:none"
         transform="matrix(0.13333333,0,0,-0.13333333,0,1152)" />
      <path
         id="path79"
         d="m 23846.8,5023.45 c -200.7,137.8 -530.6,212.21 -774,157.74 -199.3,-44.61 -346.6,-169.49 -474.6,-319.65 -119.5,-140.24 -186.2,-309.41 -238.5,-484.76 -49.7,-166.27 -47.4,-332.33 1.8,-497.79 32.6,-109.72 109.4,-190.25 199,-249.27 89.9,-59.25 194.3,-90.72 307.7,-71.6 89.2,15.01 169.8,40.75 233,111.7 46.1,51.65 81.8,107.33 105.8,167.97 6.2,13.56 11.8,27.52 16.8,41.94 75.5,218.27 -17.3,449.47 -207.2,516.42 -171.4,60.42 -363.3,-33.64 -454.6,-213.01 -1.8,52.27 11.1,103.7 24.3,155.09 46.1,180.47 232.5,407.61 494.5,376.65 35.6,-4.2 71.2,-10.86 105.7,-20.42 137,-37.99 455.4,-154.04 539.5,-271.64 1.6,-2.29 124.5,577.17 120.8,600.63"
         style="fill:#ffffff;fill-opacity:1;fill-rule:nonzero;stroke:none"
         transform="matrix(0.13333333,0,0,-0.13333333,0,1152)" />
      <path
         id="path80"
         d="m 9456.37,4360.12 c 41.39,178.12 90.13,388.45 129.64,560.59 138.98,-144.69 299.76,-247.89 501.69,-293.73 330.2,-74.93 577.7,176.83 600.7,431.81 7,78.49 -5.8,157.03 -120.9,199.35 7.5,-13.77 21.2,-27.46 21.5,-41.32 5.2,-242.7 -121.1,-415.51 -374.5,-425.04 -233.49,-8.79 -395.03,221.26 -302.9,435.69 83.33,193.94 276.8,310.32 498.9,300.06 178,-8.21 393.4,-175.98 459.8,-343.43 78.8,-198.88 -58.2,-485 -221,-617.36 -291.1,-236.78 -623,-375.42 -1014.26,-256.19 -51.76,15.77 -104.48,29.19 -178.67,49.57"
         style="fill:#ffffff;fill-opacity:1;fill-rule:nonzero;stroke:none"
         transform="matrix(0.13333333,0,0,-0.13333333,0,1152)" />
      <path
         id="path81"
         d="m 9251.13,4283.87 -305.11,114.43 311.67,501.23 z m 621.38,1503.94 -713.36,7.61 -725.72,-943.45 -3.95,-1113.5 1432.97,-526.14 10.06,2575.48"
         style="fill:#ffffff;fill-opacity:1;fill-rule:nonzero;stroke:none"
         transform="matrix(0.13333333,0,0,-0.13333333,0,1152)" />
      <path
         id="path82"
         d="m 8326.62,3087.72 -535.48,307.16 25.95,2435.65 538.69,-5.74 -29.16,-2737.07"
         style="fill:#ffffff;fill-opacity:1;fill-rule:nonzero;stroke:none"
         transform="matrix(0.13333333,0,0,-0.13333333,0,1152)" />
      <path
         id="path83"
         d="m 6098.85,5833.48 5589.75,22.22 v -74.39 l -5618.69,-24.01 28.94,76.18"
         style="fill:#ffffff;fill-opacity:1;fill-rule:nonzero;stroke:none"
         transform="matrix(0.13333333,0,0,-0.13333333,0,1152)" />
      <path
         id="path84"
         d="m 13618.3,5789.19 -102.8,-0.47 -572,-2.38 -305.9,-1.3 -616.8,-2.49 h -1.5 v 74.27 l 980.7,3.8 617.9,2.37 0.1,-17.09 0.3,-56.71"
         style="fill:#ffffff;fill-opacity:1;fill-rule:nonzero;stroke:none"
         transform="matrix(0.13333333,0,0,-0.13333333,0,1152)" />
      <path
         id="path85"
         d="m 12619.2,5799.86 -0.1,-5.17 -28.5,-2682.62 -596.7,302.36 23.8,2239.49 v 0.08 l 1.5,138.14 0.1,14.05 599.9,-6.33"
         style="fill:#ffffff;fill-opacity:1;fill-rule:nonzero;stroke:none"
         transform="matrix(0.13333333,0,0,-0.13333333,0,1152)" />
      <path
         id="path86"
         d="m 8760.65,3551.68 700.16,-303.07 41.45,-395.69 -798.92,335.55 57.31,363.21"
         style="fill:#ed1c24;fill-opacity:1;fill-rule:nonzero;stroke:none"
         transform="matrix(0.13333333,0,0,-0.13333333,0,1152)" />
      <path
         id="path87"
         d="m 7662.18,4749.69 c -8.71,247.57 -92.91,470.97 -244.93,672.04 -100.82,133.35 -251.86,206.86 -410.84,245.49 -159.61,38.78 -326.86,33.31 -482.61,-44.66 -79.46,-39.78 -151.33,-84.1 -207.79,-144.42 -92.59,-89.16 -150.27,-210.47 -151.74,-344.79 -3.05,-277.34 234.28,-504.65 530.06,-507.73 254.25,-2.63 468.78,161.33 526,383.55 75.5,-92.43 84.83,-201.9 93.39,-311.52 20.74,-265.15 -139.82,-657.84 -536.11,-736.43 -53.78,-10.66 -108.89,-18.05 -163.74,-20.98 -217.84,-11.63 -476.57,10.97 -656.21,131.26 -3.16,2.12 -78.52,58.05 -132.54,98.1 v -970.89 c 358.26,-86.39 870.5,-45.63 1191.01,135.84 268.33,151.94 421.82,388.44 534.89,650.22 105.61,244.5 120.36,503.83 111.16,764.92"
         style="fill:#ffffff;fill-opacity:1;fill-rule:nonzero;stroke:none"
         transform="matrix(0.13333333,0,0,-0.13333333,0,1152)" />
      <path
         id="path88"
         d="m 13596,3915.44 c 23.9,-337.78 -19.3,-744.14 -314,-957.34 l -483.7,193.62 c 83.9,37.73 155.7,105.24 204.4,184.14 70.9,114.97 98.5,251.77 106.9,386.43 17,270.27 -38.9,543.27 -150.2,790.17 -79,175.59 -186.8,342.17 -221.2,531.76 -39.8,218.07 23.9,445.39 136.4,636.3 21.4,36.42 44.5,71.54 68.9,105.82 18.2,25.28 37.1,50.07 56.5,74.28 l 617.9,2.37 0.1,-17.09 c -35.2,-16.49 -69.6,-35.59 -102.5,-57.18 -118.4,-77.24 -217.7,-185.68 -269.9,-317.14 -84.1,-211.78 19.5,-426.29 112.4,-615.76 143.3,-292.11 214.9,-615.77 238,-940.38"
         style="fill:#ffffff;fill-opacity:1;fill-rule:nonzero;stroke:none"
         transform="matrix(0.13333333,0,0,-0.13333333,0,1152)" />
      <path
         id="path89"
         d="m 12333.4,5330.14 c -196.2,133.46 -518.6,205.51 -756.6,152.77 -194.9,-43.21 -338.9,-164.16 -463.9,-309.58 -116.9,-135.82 -182.1,-299.65 -233.3,-469.47 -48.5,-161.03 -46.2,-321.86 1.8,-482.09 31.9,-106.28 107,-184.26 194.5,-241.43 87.9,-57.38 190,-87.85 300.9,-69.34 87.2,14.54 165.9,39.47 227.8,108.19 45,50.02 79.9,103.93 103.4,162.68 6,13.12 11.5,26.65 16.4,40.6 73.8,211.39 -16.9,435.31 -202.5,500.14 -167.6,58.52 -355.2,-32.58 -444.5,-206.28 -1.7,50.61 10.9,100.41 23.8,150.18 45,174.78 227.2,394.77 483.4,364.79 34.8,-4.07 69.6,-10.52 103.3,-19.78 134,-36.79 445.2,-149.19 527.4,-263.08 1.6,-2.22 121.8,558.97 118.1,581.7"
         style="fill:#ffffff;fill-opacity:1;fill-rule:nonzero;stroke:none"
         transform="matrix(0.13333333,0,0,-0.13333333,0,1152)" />
      <path
         id="path90"
         d="m 17839.9,1914.22 c 0,162.28 -68.9,243.88 -167.7,243.88 -99.7,0 -168.6,-81.6 -168.6,-243.88 0,-162.27 68.9,-243.86 168.6,-243.86 98.8,0 167.7,81.59 167.7,243.86 z m -426.9,0 c 0,206.71 110.5,324.56 259.2,324.56 147.8,0 258.4,-117.85 258.4,-324.56 0,-206.69 -110.6,-324.54 -258.4,-324.54 -148.7,0 -259.2,117.85 -259.2,324.54"
         style="fill:#ffffff;fill-opacity:1;fill-rule:nonzero;stroke:none"
         transform="matrix(0.13333333,0,0,-0.13333333,0,1152)" />
      <path
         id="path91"
         d="m 18328.6,2231.52 v -634.59 h -89.7 v 555.73 h -143.3 v 78.86 h 233"
         style="fill:#ffffff;fill-opacity:1;fill-rule:nonzero;stroke:none"
         transform="matrix(0.13333333,0,0,-0.13333333,0,1152)" />
      <path
         id="path92"
         d="m 18945.1,2042.96 c 0,65.27 -52.6,122.38 -151.4,122.38 -82.5,0 -139.6,-48.05 -139.6,-123.29 0,-74.34 55.3,-122.38 144.1,-122.38 87.1,0 146.9,53.48 146.9,123.29 z m 111.5,-120.58 c 0,-216.66 -122.4,-332.7 -300.1,-332.7 -59.8,0 -116.9,11.78 -157.7,37.17 l 34.4,70.71 c 33.6,-21.76 76.2,-29.92 122.4,-29.92 128.7,0 210.3,80.69 210.3,239.33 v 22.67 c -37.1,-55.29 -104.2,-83.4 -183.1,-83.4 -126,0 -216.7,75.24 -216.7,192.19 0,122.39 98,200.35 224,200.35 170.4,0 266.5,-114.23 266.5,-316.4"
         style="fill:#ffffff;fill-opacity:1;fill-rule:nonzero;stroke:none"
         transform="matrix(0.13333333,0,0,-0.13333333,0,1152)" />
      <path
         id="path93"
         d="m 19716.6,2231.52 v -61.64 l -256.5,-572.95 h -96.2 l 251.2,555.73 H 19325 v -113.32 h -87.1 v 192.18 h 478.7"
         style="fill:#ffffff;fill-opacity:1;fill-rule:nonzero;stroke:none"
         transform="matrix(0.13333333,0,0,-0.13333333,0,1152)" />
      <path
         id="path94"
         d="m 20274.2,2042.96 c 0,65.27 -52.6,122.38 -151.4,122.38 -82.5,0 -139.7,-48.05 -139.7,-123.29 0,-74.34 55.4,-122.38 144.2,-122.38 87,0 146.9,53.48 146.9,123.29 z m 111.5,-120.58 c 0,-216.66 -122.4,-332.7 -300.1,-332.7 -59.8,0 -117,11.78 -157.7,37.17 l 34.4,70.71 c 33.6,-21.76 76.2,-29.92 122.4,-29.92 128.7,0 210.3,80.69 210.3,239.33 v 22.67 c -37.2,-55.29 -104.2,-83.4 -183.1,-83.4 -126,0 -216.7,75.24 -216.7,192.19 0,122.39 97.9,200.35 223.9,200.35 170.5,0 266.6,-114.23 266.6,-316.4"
         style="fill:#ffffff;fill-opacity:1;fill-rule:nonzero;stroke:none"
         transform="matrix(0.13333333,0,0,-0.13333333,0,1152)" />
      <path
         id="path95"
         d="m 21141.8,1752.86 h -120.6 v -155.93 h -87.9 v 155.93 h -352.7 v 63.46 l 324.6,415.2 h 97.9 l -311,-400.7 h 243.9 v 137.79 h 85.2 v -137.79 h 120.6 v -77.96"
         style="fill:#ffffff;fill-opacity:1;fill-rule:nonzero;stroke:none"
         transform="matrix(0.13333333,0,0,-0.13333333,0,1152)" />
      <path
         id="path96"
         d="m 21755.6,1787.3 c 0,-109.68 -78,-197.62 -240.3,-197.62 -89.7,0 -178.6,29 -233,77.06 l 41.7,71.61 c 42.6,-39.88 113.3,-67.99 190.4,-67.99 96.1,0 150.5,44.43 150.5,113.32 0,71.62 -45.3,116.04 -192.2,116.04 h -144.1 l 33.5,331.8 h 358.1 v -78.86 h -282 l -17.2,-174.07 h 70.7 c 189.5,0 263.9,-78.87 263.9,-191.29"
         style="fill:#ffffff;fill-opacity:1;fill-rule:nonzero;stroke:none"
         transform="matrix(0.13333333,0,0,-0.13333333,0,1152)" />
      <path
         id="path97"
         d="m 22351.2,1786.41 c 0,74.33 -56.2,122.38 -145.1,122.38 -86.1,0 -145.9,-53.49 -145.9,-123.29 0,-65.28 52.6,-122.38 150.5,-122.38 82.5,0 140.5,48.04 140.5,123.29 z m 87.9,3.62 c 0,-122.39 -98.8,-200.35 -224.8,-200.35 -170.4,0 -266.5,114.23 -266.5,316.39 0,216.66 122.4,332.71 300,332.71 59.9,0 117,-11.79 157.8,-37.17 l -34.5,-70.71 c -32.6,21.76 -76.1,29.92 -121.5,29.92 -128.7,0 -211.2,-80.69 -211.2,-239.34 0,-7.26 0,-14.51 0.9,-22.66 36.3,54.39 103.4,83.4 182.2,83.4 126.1,0 217.6,-75.25 217.6,-192.19"
         style="fill:#ffffff;fill-opacity:1;fill-rule:nonzero;stroke:none"
         transform="matrix(0.13333333,0,0,-0.13333333,0,1152)" />
      <path
         id="path98"
         d="m 23080.1,2231.52 v -61.64 l -256.6,-572.95 h -96.1 l 251.2,555.73 h -290.1 v -113.32 h -87.1 v 192.18 h 478.7"
         style="fill:#ffffff;fill-opacity:1;fill-rule:nonzero;stroke:none"
         transform="matrix(0.13333333,0,0,-0.13333333,0,1152)" />
      <path
         id="path99"
         d="m 23722.9,1675.8 v -78.87 h -456 v 61.64 l 258.3,249.31 c 67.1,65.27 79.8,105.17 79.8,145.05 0,65.27 -46.2,105.17 -135.1,105.17 -67.9,0 -123.3,-21.76 -162.2,-68.9 l -61.7,53.48 c 49,60.74 133.3,96.1 232.1,96.1 132.4,0 217.6,-68 217.6,-176.78 0,-61.66 -18.1,-116.95 -104.3,-199.45 l -194,-186.75 h 325.5"
         style="fill:#ffffff;fill-opacity:1;fill-rule:nonzero;stroke:none"
         transform="matrix(0.13333333,0,0,-0.13333333,0,1152)" />
      <path
         id="path100"
         d="m 24110.9,2231.52 v -634.59 h -89.7 v 555.73 h -143.3 v 78.86 h 233"
         style="fill:#ffffff;fill-opacity:1;fill-rule:nonzero;stroke:none"
         transform="matrix(0.13333333,0,0,-0.13333333,0,1152)" />
      <path
         id="path101"
         d="m 16963,1767.58 c 0,-0.01 0,-0.03 -0.1,-0.05 v 0.13 l -18.9,-18.78 c -24.4,-24.77 -60,-34.95 -93.9,-26.88 -34.1,9.13 -66.5,23.66 -96,43.04 -27.4,17.53 -52.8,38.01 -75.8,61.08 -21.1,20.95 -40,43.96 -56.6,68.67 -18.1,26.59 -32.4,55.56 -42.5,86.08 -11.6,35.86 -2,75.19 24.9,101.63 l 22.1,22.14 c 6.1,6.18 16.2,6.21 22.3,0.05 0,-0.01 0.1,-0.03 0.1,-0.05 l 69.9,-69.9 c 6.2,-6.17 6.2,-16.17 0,-22.35 0,-0.02 0,-0.03 0,-0.05 l -41.1,-41.05 c -11.7,-11.65 -13.2,-30.17 -3.4,-43.54 14.8,-20.38 31.2,-39.55 49.1,-57.34 19.9,-20 41.6,-38.19 64.7,-54.37 13.3,-9.31 31.5,-7.75 43,3.74 l 39.7,40.3 c 6.2,6.18 16.2,6.21 22.3,0.05 0.1,-0.01 0.1,-0.03 0.1,-0.05 l 70,-70.16 c 6.2,-6.15 6.2,-16.15 0.1,-22.34 z m 71.8,410.58 c -145.7,145.72 -382,145.68 -527.7,-0.08 -145.7,-145.76 -145.7,-382.04 0.1,-527.77 145.7,-145.71 382,-145.67 527.7,0.09 70,70 109.3,164.93 109.3,263.92 0,98.96 -39.4,193.87 -109.4,263.84"
         style="fill:#ffffff;fill-opacity:1;fill-rule:nonzero;stroke:none"
         transform="matrix(0.13333333,0,0,-0.13333333,0,1152)" />
    </g>
  </g>
</svg>
